<?xml version="1.0" encoding="UTF-8"?>
<!DOCTYPE svg PUBLIC "-//W3C//DTD SVG 1.1//EN" "http://www.w3.org/Graphics/SVG/1.1/DTD/svg11.dtd">
<!-- Creator: CorelDRAW 2019 (64-Bit) -->
<svg xmlns="http://www.w3.org/2000/svg" xml:space="preserve" width="297mm" height="210mm" version="1.1" style="shape-rendering:geometricPrecision; text-rendering:geometricPrecision; image-rendering:optimizeQuality; fill-rule:evenodd; clip-rule:evenodd"
viewBox="0 0 29700 21000"
 xmlns:xlink="http://www.w3.org/1999/xlink"
 xmlns:xodm="http://www.corel.com/coreldraw/odm/2003">
 <defs>
  <style type="text/css">
   <![CDATA[
    .fil1 {fill:#FCAE05;fill-rule:nonzero}
    .fil0 {fill:white;fill-rule:nonzero}
   ]]>
  </style>
 </defs>
 <g id="Capa_x0020_1">
  <metadata id="CorelCorpID_0Corel-Layer"/>
  <g id="_1350950944">
   <path class="fil0" d="M5470.22 12067.24c-301.24,0 -580.04,-47.53 -836.48,-142.58 -256.44,-95.06 -478.82,-230.45 -667.08,-406.14 -188.26,-175.74 -334.4,-383.76 -438.41,-624.06 -104.01,-240.3 -156.05,-505.64 -156.05,-796.13 0,-290.5 52.04,-555.89 156.05,-796.19 104.01,-240.3 250.15,-448.33 438.41,-624.07 188.26,-175.68 410.64,-311.08 667.08,-406.14 256.44,-95.05 535.24,-142.57 836.48,-142.57 369.41,0 696.69,64.55 981.78,193.66 285.16,129.11 520.95,315.65 707.43,559.51l-801.53 715.5c-111.19,-139.91 -234.01,-248.37 -368.52,-325.5 -134.51,-77.07 -286.04,-115.64 -454.61,-115.64 -132.67,0 -252.82,21.47 -360.38,64.55 -107.64,43.02 -199.96,105.79 -277.09,188.27 -77.07,82.47 -137.18,182.03 -180.2,298.56 -43.01,116.59 -64.55,246.59 -64.55,390.06 0,143.4 21.54,273.4 64.55,389.99 43.02,116.53 103.13,216.09 180.2,298.57 77.13,82.47 169.45,145.24 277.09,188.26 107.56,43.08 227.71,64.55 360.38,64.55 168.57,0 320.1,-38.56 454.61,-115.64 134.51,-77.13 257.33,-185.59 368.52,-325.44l801.53 715.44c-186.48,240.3 -422.27,425.89 -707.43,556.78 -285.09,130.95 -612.37,196.4 -981.78,196.4zm2055 -86.1l0 -3765.69 1855.94 0c419.6,0 789.01,76.25 1108.22,228.61 319.15,152.43 568.41,368.52 747.71,648.27 179.31,279.76 269.02,613.27 269.02,1000.6 0,390.88 -89.71,727.12 -269.02,1008.66 -179.3,281.53 -428.56,498.52 -747.71,650.94 -319.21,152.43 -688.62,228.61 -1108.22,228.61l-1855.94 0zm1269.55 -989.85l532.57 0c179.37,0 336.24,-34.06 470.75,-102.17 134.51,-68.18 239.41,-169.46 314.7,-303.97 75.3,-134.51 112.97,-298.56 112.97,-492.22 0,-190.11 -37.67,-351.49 -112.97,-484.16 -75.29,-132.73 -180.19,-233.12 -314.7,-301.23 -134.51,-68.18 -291.38,-102.24 -470.75,-102.24l-532.57 0 0 1785.99z"/>
   <path class="fil1" d="M13372.79 12067.24c-315.59,0 -620.45,-35.9 -914.5,-107.64 -294.12,-71.73 -536.19,-164.94 -726.24,-279.69l408.81 -925.3c179.36,104.01 379.25,187.37 599.86,250.15 220.54,62.77 434.85,94.16 642.81,94.16 121.99,0 217.87,-8.07 287.82,-24.21 69.96,-16.14 121.04,-39.45 153.32,-69.95 32.28,-30.5 48.42,-67.23 48.42,-110.3 0,-68.12 -37.68,-121.93 -112.97,-161.39 -75.3,-39.46 -174.86,-72.62 -298.57,-99.5 -123.71,-26.88 -259.11,-55.6 -406.13,-86.09 -147.03,-30.5 -295.01,-70.85 -443.81,-121.04 -148.87,-50.2 -285.16,-116.53 -408.87,-199 -123.71,-82.54 -223.27,-191 -298.56,-325.51 -75.29,-134.44 -112.97,-302.12 -112.97,-502.96 0,-233.12 65.44,-445.59 196.33,-637.48 130.95,-191.88 326.39,-345.2 586.39,-459.95 260,-114.75 583.66,-172.18 970.98,-172.18 254.66,0 505.7,26.94 753.18,80.69 247.48,53.82 469.8,136.29 667.08,247.48l-381.99 919.9c-186.48,-93.21 -366.67,-163.17 -540.64,-209.8 -173.9,-46.64 -343.36,-69.96 -508.36,-69.96 -121.93,0 -218.77,10.8 -290.5,32.28 -71.73,21.54 -122.82,50.26 -153.32,86.09 -30.49,35.9 -45.74,75.29 -45.74,118.37 0,64.56 37.67,115.64 112.97,153.32 75.35,37.68 174.85,69 298.56,94.16 123.77,25.1 260.06,51.98 408.87,80.7 148.87,28.65 296.78,68.11 443.81,118.3 147.02,50.2 282.42,116.6 406.19,199.07 123.71,82.47 223.21,190.04 298.57,322.77 75.29,132.67 112.97,297.67 112.97,494.89 0,229.57 -65.51,440.26 -196.4,632.14 -130.88,191.82 -325.44,346.09 -583.65,462.62 -258.22,116.53 -582.77,174.86 -973.72,174.86zm4136.88 -3082.54c225.94,0 430.34,45.75 613.27,137.18 182.92,91.49 327.22,234.07 433.07,427.74 105.79,193.66 158.65,444.7 158.65,753.11l0 1678.41 -1215.79 0 0 -1468.61c0,-182.92 -32.28,-312.92 -96.83,-389.99 -64.56,-77.14 -152.37,-115.71 -263.56,-115.71 -82.47,0 -158.72,18.87 -228.67,56.49 -69.89,37.68 -125.49,99.56 -166.72,185.59 -41.24,86.1 -61.89,202.62 -61.89,349.71l0 1382.52 -1215.79 0 0 -3991.63 1215.79 0 0 1909.75 -290.49 -247.48c114.74,-222.31 269.9,-389.1 465.35,-500.29 195.44,-111.19 413.31,-166.79 653.61,-166.79zm3340.69 3050.26c-333.51,0 -628.52,-65.45 -884.96,-196.4 -256.37,-130.88 -458.1,-311.08 -605.19,-540.64 -147.03,-229.5 -220.54,-493.12 -220.54,-790.79 0,-297.67 73.51,-561.23 220.54,-790.79 147.09,-229.5 348.82,-408.8 605.19,-537.98 256.44,-129.1 551.45,-193.66 884.96,-193.66 333.51,0 629.4,64.56 887.62,193.66 258.22,129.18 459.95,308.48 605.2,537.98 145.24,229.56 217.87,493.12 217.87,790.79 0,297.67 -72.63,561.29 -217.87,790.79 -145.25,229.56 -346.98,409.76 -605.2,540.64 -258.22,130.95 -554.11,196.4 -887.62,196.4zm0 -946.84c89.65,0 170.34,-21.48 242.08,-64.56 71.73,-43.01 129.11,-108.45 172.12,-196.33 43.08,-87.87 64.55,-194.55 64.55,-320.1 0,-129.11 -21.47,-235.79 -64.55,-320.04 -43.01,-84.31 -100.39,-147.98 -172.12,-190.99 -71.74,-43.02 -152.43,-64.56 -242.08,-64.56 -89.65,0 -170.35,21.54 -242.08,64.56 -71.74,43.01 -129.11,106.68 -172.13,190.99 -43.07,84.25 -64.55,190.93 -64.55,320.04 0,125.55 21.48,232.23 64.55,320.1 43.02,87.88 100.39,153.32 172.13,196.33 71.73,43.08 152.43,64.56 242.08,64.56zm4056.18 946.84c-254.65,0 -465.35,-54.71 -632.13,-164.12 -166.73,-109.35 -289.54,-276.13 -368.46,-500.3 -78.91,-224.09 -118.37,-510.14 -118.37,-858.01 0,-355.05 36.79,-644.65 110.3,-868.81 73.52,-224.17 192.78,-390 357.72,-497.63 165.01,-107.57 381.93,-161.39 650.94,-161.39 258.22,0 494.9,61.89 710.1,185.6 215.21,123.77 387.33,299.51 516.44,527.23 129.11,227.72 193.66,499.41 193.66,815 0,315.59 -64.55,587.28 -193.66,815 -129.11,227.72 -301.23,402.57 -516.44,524.5 -215.2,121.93 -451.88,182.93 -710.1,182.93zm-1963.57 989.79l0 -3986.23 1156.65 0 0 398.13 5.33 1075.88 53.82 1075.89 0 1436.33 -1215.8 0zm1673.08 -1936.63c89.65,0 170.34,-21.48 242.08,-64.56 71.73,-43.01 129.11,-107.56 172.12,-193.66 43.02,-86.03 64.56,-191.88 64.56,-317.37 0,-129.11 -21.54,-236.68 -64.56,-322.77 -43.01,-86.09 -100.39,-150.65 -172.12,-193.66 -71.74,-43.02 -152.43,-64.56 -242.08,-64.56 -89.65,0 -170.34,21.54 -242.08,64.56 -71.73,43.01 -129.11,107.57 -172.19,193.66 -43.01,86.09 -64.55,193.66 -64.55,322.77 0,125.49 21.54,231.34 64.55,317.37 43.08,86.1 100.46,150.65 172.19,193.66 71.74,43.08 152.43,64.56 242.08,64.56z"/>
  </g>
 </g>
</svg>
